<svg width="304" height="223" viewBox="0 0 304 223" fill="none" xmlns="http://www.w3.org/2000/svg">
<g filter="url(#filter0_d_17_60)">
<rect x="14" y="8" width="276" height="193.536" rx="11.776" fill="white"/>
<rect x="14.368" y="8.368" width="275.264" height="192.8" rx="11.408" stroke="#E5E7EB" stroke-width="0.736"/>
<rect x="29.0881" y="36.592" width="67.784" height="25.76" rx="12.88" fill="white"/>
<rect x="29.0881" y="36.592" width="67.784" height="25.76" rx="12.88" stroke="#E5E7EB" stroke-width="0.736"/>
<rect x="34.6081" y="42.112" width="14.72" height="14.72" rx="7.36" fill="#F3F4F6"/>
<path d="M37.4681 54.0902H46.3001V45.2582H37.4681V54.0902Z" fill="#111827"/>
<path d="M57.17 45.4782V52.972H56.0394V45.4782H57.17ZM61.0365 52.972H58.6105V45.4782H61.1133C61.8476 45.4782 62.4782 45.6282 63.0051 45.9282C63.532 46.2258 63.9357 46.654 64.2163 47.2126C64.4992 47.7688 64.6407 48.4359 64.6407 49.2141C64.6407 49.9947 64.498 50.6655 64.2126 51.2266C63.9296 51.7877 63.5198 52.2194 62.9831 52.5219C62.4465 52.822 61.7976 52.972 61.0365 52.972ZM59.7412 51.984H60.9743C61.5451 51.984 62.0196 51.8767 62.3977 51.662C62.7758 51.4449 63.0588 51.1315 63.2466 50.7216C63.4344 50.3094 63.5283 49.8069 63.5283 49.2141C63.5283 48.6262 63.4344 48.1273 63.2466 47.7175C63.0612 47.3077 62.7843 46.9967 62.416 46.7845C62.0476 46.5722 61.5902 46.4661 61.0438 46.4661H59.7412V51.984ZM65.8406 52.972V45.4782H68.5118C69.0923 45.4782 69.5741 45.5782 69.9571 45.7782C70.3425 45.9782 70.6304 46.2551 70.8207 46.6088C71.0109 46.9601 71.1061 47.3663 71.1061 47.8273C71.1061 48.2859 71.0097 48.6896 70.817 49.0385C70.6267 49.3849 70.3389 49.6544 69.9535 49.8471C69.5705 50.0398 69.0887 50.1362 68.5081 50.1362H66.4846V49.1629H68.4057C68.7716 49.1629 69.0692 49.1104 69.2985 49.0055C69.5302 48.9006 69.6998 48.7482 69.8071 48.5481C69.9144 48.3481 69.9681 48.1078 69.9681 47.8273C69.9681 47.5443 69.9132 47.2992 69.8034 47.0918C69.6961 46.8845 69.5266 46.7259 69.2948 46.6161C69.0655 46.5039 68.7642 46.4478 68.391 46.4478H66.9713V52.972H65.8406ZM69.54 49.591L71.3915 52.972H70.1035L68.2886 49.591H69.54Z" fill="#111827"/>
<path d="M81.0481 48L83.9921 50.944L86.9361 48" stroke="#6B7280" stroke-width="1.104" stroke-linecap="round" stroke-linejoin="round"/>
<path d="M221.707 25.9867V25.2967H226.524V25.9867H224.504V31.72H223.726V25.9867H221.707ZM228.706 31.8203C228.271 31.8203 227.889 31.7168 227.561 31.5098C227.235 31.3028 226.98 31.0132 226.796 30.6411C226.614 30.2689 226.523 29.834 226.523 29.3363C226.523 28.8345 226.614 28.3965 226.796 28.0222C226.98 27.6479 227.235 27.3573 227.561 27.1503C227.889 26.9433 228.271 26.8398 228.706 26.8398C229.141 26.8398 229.521 26.9433 229.848 27.1503C230.176 27.3573 230.431 27.6479 230.613 28.0222C230.797 28.3965 230.889 28.8345 230.889 29.3363C230.889 29.834 230.797 30.2689 230.613 30.6411C230.431 31.0132 230.176 31.3028 229.848 31.5098C229.521 31.7168 229.141 31.8203 228.706 31.8203ZM228.706 31.1554C229.036 31.1554 229.308 31.0707 229.521 30.9014C229.735 30.732 229.893 30.5093 229.995 30.2333C230.097 29.9573 230.149 29.6583 230.149 29.3363C230.149 29.0143 230.097 28.7143 229.995 28.4362C229.893 28.1581 229.735 27.9333 229.521 27.7619C229.308 27.5904 229.036 27.5047 228.706 27.5047C228.376 27.5047 228.104 27.5904 227.89 27.7619C227.677 27.9333 227.519 28.1581 227.417 28.4362C227.314 28.7143 227.263 29.0143 227.263 29.3363C227.263 29.6583 227.314 29.9573 227.417 30.2333C227.519 30.5093 227.677 30.732 227.89 30.9014C228.104 31.0707 228.376 31.1554 228.706 31.1554ZM233.937 26.9025V27.5298H231.441V26.9025H233.937ZM232.168 25.7483H232.908V30.34C232.908 30.5491 232.939 30.7059 232.999 30.8104C233.062 30.9129 233.142 30.9819 233.238 31.0174C233.336 31.0509 233.44 31.0676 233.548 31.0676C233.63 31.0676 233.697 31.0634 233.749 31.0551C233.801 31.0446 233.843 31.0362 233.874 31.03L234.025 31.6949C233.975 31.7137 233.905 31.7325 233.815 31.7513C233.725 31.7722 233.611 31.7827 233.473 31.7827C233.264 31.7827 233.059 31.7377 232.858 31.6478C232.66 31.5579 232.494 31.421 232.363 31.237C232.233 31.053 232.168 30.8209 232.168 30.5407V25.7483ZM236.292 31.8329C235.986 31.8329 235.709 31.7754 235.46 31.6604C235.212 31.5433 235.014 31.375 234.868 31.1554C234.721 30.9338 234.648 30.6662 234.648 30.3525C234.648 30.0765 234.702 29.8528 234.811 29.6813C234.92 29.5078 235.065 29.3719 235.247 29.2736C235.429 29.1753 235.63 29.1022 235.849 29.0541C236.071 29.0039 236.294 28.9642 236.517 28.9349C236.81 28.8972 237.047 28.869 237.229 28.8502C237.413 28.8293 237.547 28.7948 237.631 28.7467C237.717 28.6986 237.759 28.615 237.759 28.4958V28.4707C237.759 28.1612 237.675 27.9208 237.505 27.7493C237.338 27.5779 237.084 27.4922 236.743 27.4922C236.39 27.4922 236.113 27.5695 235.912 27.7242C235.711 27.879 235.57 28.0442 235.489 28.2198L234.786 27.9689C234.912 27.6762 235.079 27.4482 235.288 27.2852C235.499 27.12 235.729 27.005 235.978 26.9402C236.229 26.8732 236.476 26.8398 236.718 26.8398C236.873 26.8398 237.051 26.8586 237.251 26.8962C237.454 26.9318 237.65 27.006 237.838 27.1189C238.028 27.2318 238.186 27.4022 238.311 27.6302C238.437 27.8581 238.5 28.1633 238.5 28.546V31.72H237.759V31.0676H237.722C237.672 31.1722 237.588 31.284 237.471 31.4032C237.354 31.5224 237.198 31.6238 237.004 31.7074C236.809 31.7911 236.572 31.8329 236.292 31.8329ZM236.404 31.168C236.697 31.168 236.944 31.1105 237.145 30.9955C237.347 30.8805 237.5 30.732 237.603 30.5501C237.707 30.3682 237.759 30.1769 237.759 29.9762V29.2987C237.728 29.3363 237.659 29.3708 237.552 29.4022C237.448 29.4315 237.327 29.4576 237.189 29.4806C237.053 29.5015 236.92 29.5203 236.79 29.5371C236.663 29.5517 236.559 29.5642 236.48 29.5747C236.287 29.5998 236.108 29.6406 235.94 29.697C235.775 29.7514 235.641 29.834 235.539 29.9448C235.438 30.0535 235.388 30.202 235.388 30.3902C235.388 30.6473 235.483 30.8418 235.674 30.9735C235.866 31.1032 236.11 31.168 236.404 31.168ZM240.414 25.2967V31.72H239.674V25.2967H240.414ZM244.001 31.72V25.2967H244.741V27.6678H244.804C244.858 27.5842 244.933 27.4775 245.03 27.3479C245.128 27.2162 245.268 27.0991 245.45 26.9966C245.634 26.8921 245.883 26.8398 246.196 26.8398C246.602 26.8398 246.96 26.9412 247.269 27.144C247.578 27.3468 247.82 27.6343 247.993 28.0065C248.167 28.3787 248.254 28.8178 248.254 29.3238C248.254 29.834 248.167 30.2762 247.993 30.6505C247.82 31.0227 247.579 31.3112 247.272 31.5161C246.965 31.7189 246.61 31.8203 246.209 31.8203C245.899 31.8203 245.652 31.7691 245.466 31.6667C245.279 31.5621 245.136 31.444 245.036 31.3122C244.936 31.1784 244.858 31.0676 244.804 30.9798H244.716V31.72H244.001ZM244.729 29.3112C244.729 29.6751 244.782 29.996 244.888 30.2741C244.995 30.5501 245.151 30.7665 245.356 30.9233C245.561 31.0781 245.812 31.1554 246.109 31.1554C246.418 31.1554 246.676 31.0739 246.883 30.9108C247.092 30.7456 247.249 30.524 247.354 30.2459C247.46 29.9657 247.514 29.6542 247.514 29.3112C247.514 28.9725 247.461 28.6672 247.357 28.3954C247.254 28.1215 247.099 27.9051 246.889 27.7462C246.682 27.5852 246.422 27.5047 246.109 27.5047C245.807 27.5047 245.554 27.581 245.35 27.7337C245.145 27.8842 244.99 28.0954 244.885 28.3672C244.781 28.6369 244.729 28.9516 244.729 29.3112ZM250.627 31.8329C250.322 31.8329 250.045 31.7754 249.796 31.6604C249.547 31.5433 249.349 31.375 249.203 31.1554C249.057 30.9338 248.984 30.6662 248.984 30.3525C248.984 30.0765 249.038 29.8528 249.147 29.6813C249.255 29.5078 249.401 29.3719 249.583 29.2736C249.765 29.1753 249.965 29.1022 250.185 29.0541C250.406 29.0039 250.629 28.9642 250.853 28.9349C251.146 28.8972 251.383 28.869 251.565 28.8502C251.749 28.8293 251.883 28.7948 251.966 28.7467C252.052 28.6986 252.095 28.615 252.095 28.4958V28.4707C252.095 28.1612 252.01 27.9208 251.841 27.7493C251.674 27.5779 251.419 27.4922 251.079 27.4922C250.725 27.4922 250.448 27.5695 250.248 27.7242C250.047 27.879 249.906 28.0442 249.824 28.2198L249.122 27.9689C249.247 27.6762 249.414 27.4482 249.623 27.2852C249.835 27.12 250.065 27.005 250.313 26.9402C250.564 26.8732 250.811 26.8398 251.054 26.8398C251.208 26.8398 251.386 26.8586 251.587 26.8962C251.79 26.9318 251.985 27.006 252.173 27.1189C252.364 27.2318 252.521 27.4022 252.647 27.6302C252.772 27.8581 252.835 28.1633 252.835 28.546V31.72H252.095V31.0676H252.057C252.007 31.1722 251.923 31.284 251.806 31.4032C251.689 31.5224 251.533 31.6238 251.339 31.7074C251.145 31.7911 250.907 31.8329 250.627 31.8329ZM250.74 31.168C251.033 31.168 251.279 31.1105 251.48 30.9955C251.683 30.8805 251.836 30.732 251.938 30.5501C252.043 30.3682 252.095 30.1769 252.095 29.9762V29.2987C252.063 29.3363 251.994 29.3708 251.888 29.4022C251.783 29.4315 251.662 29.4576 251.524 29.4806C251.388 29.5015 251.255 29.5203 251.126 29.5371C250.998 29.5517 250.895 29.5642 250.815 29.5747C250.623 29.5998 250.443 29.6406 250.276 29.697C250.111 29.7514 249.977 29.834 249.874 29.9448C249.774 30.0535 249.724 30.202 249.724 30.3902C249.724 30.6473 249.819 30.8418 250.009 30.9735C250.202 31.1032 250.445 31.168 250.74 31.168ZM254.75 25.2967V31.72H254.009V25.2967H254.75ZM257.346 31.8329C257.041 31.8329 256.764 31.7754 256.515 31.6604C256.266 31.5433 256.069 31.375 255.922 31.1554C255.776 30.9338 255.703 30.6662 255.703 30.3525C255.703 30.0765 255.757 29.8528 255.866 29.6813C255.975 29.5078 256.12 29.3719 256.302 29.2736C256.484 29.1753 256.684 29.1022 256.904 29.0541C257.126 29.0039 257.348 28.9642 257.572 28.9349C257.865 28.8972 258.102 28.869 258.284 28.8502C258.468 28.8293 258.602 28.7948 258.685 28.7467C258.771 28.6986 258.814 28.615 258.814 28.4958V28.4707C258.814 28.1612 258.729 27.9208 258.56 27.7493C258.393 27.5779 258.139 27.4922 257.798 27.4922C257.445 27.4922 257.167 27.5695 256.967 27.7242C256.766 27.879 256.625 28.0442 256.543 28.2198L255.841 27.9689C255.966 27.6762 256.134 27.4482 256.343 27.2852C256.554 27.12 256.784 27.005 257.033 26.9402C257.284 26.8732 257.53 26.8398 257.773 26.8398C257.928 26.8398 258.105 26.8586 258.306 26.8962C258.509 26.9318 258.704 27.006 258.892 27.1189C259.083 27.2318 259.241 27.4022 259.366 27.6302C259.492 27.8581 259.554 28.1633 259.554 28.546V31.72H258.814V31.0676H258.776C258.726 31.1722 258.643 31.284 258.526 31.4032C258.408 31.5224 258.253 31.6238 258.058 31.7074C257.864 31.7911 257.626 31.8329 257.346 31.8329ZM257.459 31.168C257.752 31.168 257.999 31.1105 258.199 30.9955C258.402 30.8805 258.555 30.732 258.657 30.5501C258.762 30.3682 258.814 30.1769 258.814 29.9762V29.2987C258.783 29.3363 258.714 29.3708 258.607 29.4022C258.503 29.4315 258.381 29.4576 258.243 29.4806C258.107 29.5015 257.975 29.5203 257.845 29.5371C257.717 29.5517 257.614 29.5642 257.534 29.5747C257.342 29.5998 257.162 29.6406 256.995 29.697C256.83 29.7514 256.696 29.834 256.594 29.9448C256.493 30.0535 256.443 30.202 256.443 30.3902C256.443 30.6473 256.538 30.8418 256.728 30.9735C256.921 31.1032 257.164 31.168 257.459 31.168ZM261.469 28.822V31.72H260.729V26.9025H261.444V27.6552H261.506C261.619 27.4106 261.791 27.2141 262.021 27.0656C262.251 26.9151 262.548 26.8398 262.911 26.8398C263.238 26.8398 263.523 26.9067 263.768 27.0405C264.012 27.1722 264.203 27.373 264.339 27.6427C264.474 27.9103 264.542 28.2491 264.542 28.6589V31.72H263.802V28.7091C263.802 28.3306 263.704 28.0358 263.507 27.8246C263.311 27.6113 263.041 27.5047 262.698 27.5047C262.462 27.5047 262.251 27.5559 262.065 27.6584C261.881 27.7608 261.735 27.9103 261.629 28.1069C261.522 28.3034 261.469 28.5418 261.469 28.822ZM267.675 31.8203C267.224 31.8203 266.835 31.7137 266.509 31.5004C266.182 31.2872 265.932 30.9934 265.756 30.6191C265.58 30.2448 265.492 29.8172 265.492 29.3363C265.492 28.8471 265.582 28.4153 265.762 28.041C265.944 27.6647 266.197 27.3709 266.521 27.1597C266.847 26.9464 267.228 26.8398 267.663 26.8398C268.002 26.8398 268.307 26.9025 268.579 27.028C268.85 27.1534 269.073 27.3291 269.247 27.5549C269.42 27.7807 269.528 28.0442 269.57 28.3452H268.83C268.773 28.1257 268.648 27.9312 268.453 27.7619C268.261 27.5904 268.002 27.5047 267.675 27.5047C267.387 27.5047 267.134 27.58 266.916 27.7305C266.701 27.879 266.533 28.0891 266.411 28.3609C266.292 28.6307 266.233 28.9474 266.233 29.3112C266.233 29.6834 266.291 30.0075 266.408 30.2835C266.527 30.5595 266.695 30.7738 266.91 30.9265C267.128 31.0791 267.383 31.1554 267.675 31.1554C267.868 31.1554 268.042 31.122 268.199 31.0551C268.356 30.9882 268.489 30.892 268.597 30.7665C268.706 30.6411 268.784 30.4905 268.83 30.3149H269.57C269.528 30.5992 269.424 30.8554 269.259 31.0833C269.096 31.3091 268.88 31.4889 268.61 31.6227C268.342 31.7545 268.031 31.8203 267.675 31.8203ZM272.495 31.8203C272.031 31.8203 271.63 31.7179 271.294 31.513C270.959 31.306 270.701 31.0174 270.519 30.6473C270.339 30.2752 270.249 29.8423 270.249 29.3489C270.249 28.8554 270.339 28.4205 270.519 28.0442C270.701 27.6657 270.954 27.3709 271.278 27.1597C271.604 26.9464 271.985 26.8398 272.42 26.8398C272.671 26.8398 272.918 26.8816 273.163 26.9652C273.408 27.0489 273.63 27.1848 273.831 27.373C274.032 27.5591 274.192 27.8058 274.311 28.1132C274.43 28.4205 274.49 28.799 274.49 29.2485V29.5622H270.776V28.9223H273.737C273.737 28.6505 273.683 28.408 273.574 28.1947C273.467 27.9814 273.315 27.8131 273.116 27.6897C272.919 27.5664 272.687 27.5047 272.42 27.5047C272.125 27.5047 271.87 27.5779 271.654 27.7242C271.441 27.8685 271.277 28.0567 271.162 28.2888C271.047 28.5209 270.99 28.7697 270.99 29.0352V29.4618C270.99 29.8256 271.052 30.134 271.178 30.387C271.305 30.6379 271.482 30.8292 271.708 30.961C271.934 31.0906 272.196 31.1554 272.495 31.1554C272.689 31.1554 272.865 31.1282 273.022 31.0739C273.181 31.0174 273.318 30.9338 273.433 30.823C273.548 30.7101 273.637 30.57 273.699 30.4027L274.414 30.6034C274.339 30.846 274.213 31.0592 274.035 31.2432C273.857 31.4252 273.638 31.5673 273.376 31.6698C273.115 31.7702 272.821 31.8203 272.495 31.8203Z" fill="#6B7280"/>
<path d="M193.221 57.8396C192.648 57.8312 192.084 57.7267 191.527 57.5259C190.975 57.3252 190.474 56.9907 190.022 56.5223C189.57 56.0539 189.209 55.4246 188.937 54.6342C188.669 53.8438 188.535 52.8569 188.535 51.6735C188.535 50.5528 188.646 49.5575 188.868 48.6877C189.094 47.8178 189.418 47.0839 189.84 46.4859C190.262 45.8838 190.773 45.4258 191.371 45.1122C191.969 44.7986 192.64 44.6418 193.384 44.6418C194.149 44.6418 194.829 44.7923 195.423 45.0934C196.017 45.3945 196.497 45.8106 196.865 46.3417C197.238 46.8728 197.474 47.477 197.574 48.1545H195.661C195.531 47.6192 195.274 47.1822 194.89 46.8435C194.505 46.5048 194.003 46.3354 193.384 46.3354C192.443 46.3354 191.709 46.7452 191.182 47.5648C190.66 48.3845 190.396 49.524 190.392 50.9835H190.486C190.708 50.6197 190.98 50.3102 191.302 50.0551C191.628 49.7958 191.992 49.5972 192.393 49.4592C192.799 49.317 193.225 49.2459 193.673 49.2459C194.417 49.2459 195.09 49.4278 195.692 49.7917C196.299 50.1513 196.782 50.6489 197.141 51.2846C197.501 51.9202 197.681 52.6478 197.681 53.4675C197.681 54.2871 197.495 55.0294 197.123 55.6943C196.755 56.3592 196.236 56.8861 195.567 57.275C194.898 57.6598 194.116 57.8479 193.221 57.8396ZM193.215 56.2087C193.708 56.2087 194.149 56.0874 194.538 55.8448C194.927 55.6023 195.235 55.2761 195.46 54.8663C195.686 54.4565 195.799 53.9986 195.799 53.4926C195.799 52.9991 195.688 52.5496 195.467 52.1439C195.249 51.7383 194.948 51.4163 194.563 51.1779C194.183 50.9396 193.748 50.8204 193.259 50.8204C192.886 50.8204 192.541 50.8915 192.224 51.0337C191.91 51.1758 191.634 51.3724 191.396 51.6233C191.157 51.8742 190.969 52.1628 190.831 52.4889C190.697 52.8109 190.63 53.1518 190.63 53.5114C190.63 53.9923 190.741 54.4377 190.963 54.8475C191.189 55.2573 191.496 55.5877 191.885 55.8386C192.278 56.0853 192.721 56.2087 193.215 56.2087ZM204.486 44.8174V57.6639H202.542V46.7619H202.467L199.393 48.7692V46.9125L202.598 44.8174H204.486ZM208.127 57.7831C207.784 57.7831 207.49 57.6618 207.243 57.4193C206.996 57.1726 206.873 56.8757 206.873 56.5286C206.873 56.1857 206.996 55.8929 207.243 55.6504C207.49 55.4037 207.784 55.2803 208.127 55.2803C208.47 55.2803 208.765 55.4037 209.012 55.6504C209.258 55.8929 209.382 56.1857 209.382 56.5286C209.382 56.7586 209.323 56.9698 209.206 57.1621C209.093 57.3503 208.943 57.5008 208.755 57.6138C208.566 57.7267 208.357 57.7831 208.127 57.7831ZM211.516 57.6639V56.2588L215.863 51.755C216.327 51.2658 216.71 50.8371 217.011 50.4691C217.316 50.0969 217.544 49.7436 217.694 49.409C217.845 49.0745 217.92 48.719 217.92 48.3427C217.92 47.9161 217.82 47.5481 217.619 47.2387C217.418 46.925 217.144 46.6846 216.797 46.5173C216.45 46.3458 216.059 46.2601 215.624 46.2601C215.164 46.2601 214.763 46.3542 214.42 46.5424C214.077 46.7306 213.814 46.9961 213.63 47.339C213.446 47.6819 213.354 48.0834 213.354 48.5434H211.503C211.503 47.7614 211.683 47.0777 212.043 46.4922C212.402 45.9068 212.896 45.453 213.523 45.131C214.15 44.8048 214.863 44.6418 215.662 44.6418C216.469 44.6418 217.18 44.8028 217.795 45.1248C218.414 45.4426 218.897 45.8775 219.244 46.4295C219.591 46.9773 219.764 47.5962 219.764 48.2862C219.764 48.7629 219.674 49.2292 219.495 49.685C219.319 50.1408 219.012 50.6489 218.573 51.2093C218.133 51.7655 217.523 52.4408 216.741 53.2354L214.188 55.9076V56.0017H219.971V57.6639H211.516ZM221.45 55.1548V53.5867L227.001 44.8174H228.237V47.1258H227.453L223.482 53.411V53.5114H231.091V55.1548H221.45ZM227.541 57.6639V54.6781L227.553 53.963V44.8174H229.391V57.6639H227.541ZM237.409 57.8396C236.836 57.8312 236.271 57.7267 235.715 57.5259C235.163 57.3252 234.661 56.9907 234.21 56.5223C233.758 56.0539 233.396 55.4246 233.124 54.6342C232.857 53.8438 232.723 52.8569 232.723 51.6735C232.723 50.5528 232.834 49.5575 233.055 48.6877C233.281 47.8178 233.605 47.0839 234.028 46.4859C234.45 45.8838 234.96 45.4258 235.558 45.1122C236.156 44.7986 236.827 44.6418 237.572 44.6418C238.337 44.6418 239.017 44.7923 239.61 45.0934C240.204 45.3945 240.685 45.8106 241.053 46.3417C241.425 46.8728 241.662 47.477 241.762 48.1545H239.849C239.719 47.6192 239.462 47.1822 239.077 46.8435C238.692 46.5048 238.191 46.3354 237.572 46.3354C236.631 46.3354 235.897 46.7452 235.37 47.5648C234.847 48.3845 234.584 49.524 234.58 50.9835H234.674C234.895 50.6197 235.167 50.3102 235.489 50.0551C235.815 49.7958 236.179 49.5972 236.581 49.4592C236.986 49.317 237.413 49.2459 237.86 49.2459C238.605 49.2459 239.278 49.4278 239.88 49.7917C240.486 50.1513 240.969 50.6489 241.329 51.2846C241.689 51.9202 241.869 52.6478 241.869 53.4675C241.869 54.2871 241.682 55.0294 241.31 55.6943C240.942 56.3592 240.424 56.8861 239.755 57.275C239.086 57.6598 238.304 57.8479 237.409 57.8396ZM237.402 56.2087C237.896 56.2087 238.337 56.0874 238.726 55.8448C239.115 55.6023 239.422 55.2761 239.648 54.8663C239.874 54.4565 239.987 53.9986 239.987 53.4926C239.987 52.9991 239.876 52.5496 239.654 52.1439C239.437 51.7383 239.136 51.4163 238.751 51.1779C238.37 50.9396 237.936 50.8204 237.446 50.8204C237.074 50.8204 236.729 50.8915 236.411 51.0337C236.098 51.1758 235.822 51.3724 235.583 51.6233C235.345 51.8742 235.157 52.1628 235.019 52.4889C234.885 52.8109 234.818 53.1518 234.818 53.5114C234.818 53.9923 234.929 54.4377 235.15 54.8475C235.376 55.2573 235.684 55.5877 236.073 55.8386C236.466 56.0853 236.909 56.2087 237.402 56.2087ZM244.474 57.7831C244.132 57.7831 243.837 57.6618 243.59 57.4193C243.343 57.1726 243.22 56.8757 243.22 56.5286C243.22 56.1857 243.343 55.8929 243.59 55.6504C243.837 55.4037 244.132 55.2803 244.474 55.2803C244.817 55.2803 245.112 55.4037 245.359 55.6504C245.606 55.8929 245.729 56.1857 245.729 56.5286C245.729 56.7586 245.67 56.9698 245.553 57.1621C245.44 57.3503 245.29 57.5008 245.102 57.6138C244.914 57.7267 244.704 57.7831 244.474 57.7831ZM251.184 44.8174V57.6639H249.24V46.7619H249.164L246.091 48.7692V46.9125L249.296 44.8174H251.184ZM258.647 57.8396C257.748 57.8396 256.953 57.6848 256.263 57.3754C255.577 57.0659 255.04 56.6394 254.651 56.0958C254.262 55.5521 254.07 54.9332 254.074 54.239C254.07 53.6954 254.181 53.1957 254.406 52.7398C254.636 52.2798 254.948 51.8972 255.341 51.5919C255.734 51.2825 256.173 51.0859 256.658 51.0023V50.927C256.018 50.7723 255.506 50.4294 255.121 49.8983C254.737 49.3672 254.546 48.7567 254.551 48.0667C254.546 47.4101 254.72 46.8247 255.071 46.3103C255.427 45.7918 255.914 45.384 256.533 45.0871C257.152 44.7902 257.856 44.6418 258.647 44.6418C259.429 44.6418 260.127 44.7923 260.742 45.0934C261.361 45.3903 261.848 45.798 262.203 46.3166C262.559 46.8309 262.739 47.4143 262.743 48.0667C262.739 48.7567 262.542 49.3672 262.153 49.8983C261.764 50.4294 261.258 50.7723 260.635 50.927V51.0023C261.116 51.0859 261.549 51.2825 261.934 51.5919C262.323 51.8972 262.632 52.2798 262.862 52.7398C263.096 53.1957 263.215 53.6954 263.22 54.239C263.215 54.9332 263.019 55.5521 262.63 56.0958C262.241 56.6394 261.702 57.0659 261.012 57.3754C260.326 57.6848 259.537 57.8396 258.647 57.8396ZM258.647 56.2526C259.178 56.2526 259.638 56.1648 260.027 55.9891C260.416 55.8093 260.717 55.5605 260.93 55.2427C261.143 54.9207 261.252 54.5443 261.256 54.1136C261.252 53.6661 261.135 53.2709 260.905 52.928C260.679 52.5851 260.372 52.3154 259.983 52.1188C259.594 51.9223 259.149 51.824 258.647 51.824C258.141 51.824 257.691 51.9223 257.298 52.1188C256.905 52.3154 256.596 52.5851 256.37 52.928C256.144 53.2709 256.033 53.6661 256.037 54.1136C256.033 54.5443 256.136 54.9207 256.345 55.2427C256.558 55.5605 256.861 55.8093 257.254 55.9891C257.647 56.1648 258.111 56.2526 258.647 56.2526ZM258.647 50.2747C259.073 50.2747 259.452 50.1889 259.782 50.0175C260.112 49.846 260.372 49.6077 260.56 49.3024C260.752 48.9971 260.851 48.6396 260.855 48.2298C260.851 47.8283 260.754 47.477 260.566 47.1759C260.382 46.8748 260.125 46.6428 259.795 46.4797C259.464 46.3124 259.082 46.2288 258.647 46.2288C258.203 46.2288 257.815 46.3124 257.48 46.4797C257.15 46.6428 256.892 46.8748 256.708 47.1759C256.524 47.477 256.435 47.8283 256.439 48.2298C256.435 48.6396 256.527 48.9971 256.715 49.3024C256.903 49.6077 257.162 49.846 257.493 50.0175C257.827 50.1889 258.212 50.2747 258.647 50.2747ZM269.586 57.8772C268.595 57.873 267.748 57.6117 267.046 57.0931C266.343 56.5746 265.806 55.8198 265.433 54.8287C265.061 53.8376 264.875 52.6437 264.875 51.2469C264.875 49.8544 265.061 48.6647 265.433 47.6778C265.81 46.6908 266.349 45.9381 267.052 45.4196C267.759 44.901 268.603 44.6418 269.586 44.6418C270.569 44.6418 271.411 44.9031 272.114 45.4258C272.816 45.9444 273.354 46.6971 273.726 47.684C274.102 48.6668 274.291 49.8544 274.291 51.2469C274.291 52.6478 274.104 53.8438 273.732 54.8349C273.36 55.8218 272.823 56.5767 272.12 57.0994C271.418 57.6179 270.573 57.8772 269.586 57.8772ZM269.586 56.2024C270.456 56.2024 271.135 55.7779 271.625 54.929C272.118 54.0801 272.365 52.8528 272.365 51.2469C272.365 50.1806 272.252 49.2794 272.026 48.5434C271.804 47.8032 271.485 47.2428 271.066 46.8623C270.652 46.4776 270.159 46.2852 269.586 46.2852C268.72 46.2852 268.041 46.7118 267.547 47.5648C267.054 48.4179 266.805 49.6453 266.801 51.2469C266.801 52.3175 266.912 53.2228 267.133 53.963C267.359 54.699 267.679 55.2573 268.093 55.6378C268.507 56.0142 269.005 56.2024 269.586 56.2024Z" fill="#111827"/>
<g clip-path="url(#clip0_17_60)">
<rect x="28.72" y="80.384" width="246.56" height="106.432" rx="11.776" fill="white"/>
<mask id="path-12-inside-1_17_60" fill="white">
<path d="M40.4961 80.384H263.504V157.152H40.4961V80.384Z"/>
</mask>
<path d="M263.504 156.416H40.4961V157.888H263.504V156.416Z" fill="#E5E7EB" mask="url(#path-12-inside-1_17_60)"/>
<rect x="51.4442" y="95.1039" width="29.44" height="29.44" rx="14.72" fill="#9C83ED"/>
<path d="M66.164 114.976V104.672M66.164 104.672L61.012 109.824M66.164 104.672L71.316 109.824" stroke="white" stroke-width="1.472" stroke-linecap="round" stroke-linejoin="round"/>
<path d="M49.5906 133.699V133.009H54.4081V133.699H52.3882V139.432H51.6104V133.699H49.5906ZM54.8313 139.432V134.615H55.5463V135.342H55.5965C55.6843 135.104 55.8433 134.91 56.0733 134.762C56.3033 134.614 56.5625 134.539 56.8511 134.539C56.9054 134.539 56.9734 134.54 57.0549 134.542C57.1365 134.545 57.1982 134.548 57.24 134.552V135.305C57.2149 135.298 57.1574 135.289 57.0675 135.276C56.9797 135.262 56.8866 135.254 56.7883 135.254C56.5542 135.254 56.3451 135.304 56.1611 135.402C55.9792 135.498 55.8349 135.632 55.7283 135.803C55.6237 135.973 55.5714 136.166 55.5714 136.384V139.432H54.8313ZM59.3584 139.545C59.0531 139.545 58.7761 139.487 58.5272 139.372C58.2784 139.255 58.0808 139.087 57.9345 138.868C57.7881 138.646 57.7149 138.378 57.7149 138.065C57.7149 137.789 57.7693 137.565 57.878 137.393C57.9867 137.22 58.1321 137.084 58.314 136.986C58.4959 136.887 58.6966 136.814 58.9161 136.766C59.1378 136.716 59.3605 136.676 59.5842 136.647C59.8769 136.609 60.1142 136.581 60.2961 136.562C60.4801 136.541 60.614 136.507 60.6976 136.459C60.7833 136.411 60.8262 136.327 60.8262 136.208V136.183C60.8262 135.873 60.7415 135.633 60.5721 135.461C60.4049 135.29 60.1508 135.204 59.81 135.204C59.4566 135.204 59.1796 135.282 58.9789 135.436C58.7781 135.591 58.637 135.756 58.5555 135.932L57.8529 135.681C57.9784 135.388 58.1456 135.16 58.3547 134.997C58.5659 134.832 58.7959 134.717 59.0447 134.652C59.2956 134.585 59.5424 134.552 59.7849 134.552C59.9396 134.552 60.1174 134.571 60.3181 134.608C60.5209 134.644 60.7164 134.718 60.9046 134.831C61.0949 134.944 61.2527 135.114 61.3782 135.342C61.5036 135.57 61.5664 135.875 61.5664 136.258V139.432H60.8262V138.78H60.7886C60.7384 138.884 60.6547 138.996 60.5376 139.115C60.4206 139.234 60.2648 139.336 60.0703 139.42C59.8759 139.503 59.6386 139.545 59.3584 139.545ZM59.4713 138.88C59.764 138.88 60.0107 138.823 60.2115 138.708C60.4143 138.593 60.5669 138.444 60.6694 138.262C60.7739 138.08 60.8262 137.889 60.8262 137.688V137.011C60.7948 137.048 60.7258 137.083 60.6192 137.114C60.5146 137.144 60.3934 137.17 60.2554 137.193C60.1195 137.214 59.9867 137.232 59.8571 137.249C59.7295 137.264 59.626 137.276 59.5466 137.287C59.3542 137.312 59.1744 137.353 59.0071 137.409C58.8419 137.463 58.7081 137.546 58.6056 137.657C58.5053 137.766 58.4551 137.914 58.4551 138.102C58.4551 138.359 58.5502 138.554 58.7405 138.686C58.9329 138.815 59.1765 138.88 59.4713 138.88ZM63.4809 136.534V139.432H62.7407V134.615H63.4558V135.367H63.5185C63.6314 135.123 63.8029 134.926 64.0329 134.778C64.2629 134.627 64.5598 134.552 64.9236 134.552C65.2498 134.552 65.5352 134.619 65.7799 134.753C66.0245 134.884 66.2148 135.085 66.3507 135.355C66.4866 135.622 66.5545 135.961 66.5545 136.371V139.432H65.8144V136.421C65.8144 136.043 65.7161 135.748 65.5195 135.537C65.323 135.323 65.0533 135.217 64.7104 135.217C64.4741 135.217 64.2629 135.268 64.0768 135.37C63.8928 135.473 63.7475 135.622 63.6409 135.819C63.5342 136.016 63.4809 136.254 63.4809 136.534ZM71.1428 135.694L70.4779 135.882C70.4361 135.771 70.3744 135.663 70.2929 135.559C70.2134 135.452 70.1047 135.364 69.9667 135.295C69.8287 135.226 69.652 135.192 69.4366 135.192C69.1418 135.192 68.8961 135.26 68.6996 135.396C68.5051 135.529 68.4079 135.7 68.4079 135.907C68.4079 136.091 68.4748 136.236 68.6086 136.343C68.7425 136.449 68.9515 136.538 69.2359 136.609L69.951 136.785C70.3817 136.89 70.7027 137.049 70.9139 137.265C71.125 137.478 71.2306 137.753 71.2306 138.09C71.2306 138.366 71.1512 138.612 70.9923 138.83C70.8355 139.047 70.6159 139.219 70.3336 139.344C70.0514 139.47 69.7231 139.532 69.3488 139.532C68.8575 139.532 68.4508 139.426 68.1288 139.213C67.8068 138.999 67.6029 138.688 67.5172 138.278L68.2197 138.102C68.2866 138.362 68.4131 138.556 68.5992 138.686C68.7874 138.815 69.0331 138.88 69.3363 138.88C69.6813 138.88 69.9552 138.807 70.158 138.661C70.3629 138.512 70.4654 138.334 70.4654 138.127C70.4654 137.96 70.4068 137.82 70.2897 137.707C70.1726 137.592 69.9928 137.506 69.7503 137.45L68.9474 137.262C68.5062 137.157 68.1821 136.995 67.9751 136.776C67.7702 136.554 67.6677 136.277 67.6677 135.944C67.6677 135.673 67.744 135.432 67.8967 135.223C68.0514 135.014 68.2615 134.85 68.5271 134.731C68.7947 134.611 69.0979 134.552 69.4366 134.552C69.9134 134.552 70.2876 134.656 70.5595 134.866C70.8334 135.075 71.0278 135.351 71.1428 135.694ZM74.3135 134.615V135.242H71.7166V134.615H74.3135ZM72.4944 139.432V133.95C72.4944 133.674 72.5592 133.444 72.6888 133.26C72.8185 133.076 72.9868 132.938 73.1938 132.846C73.4008 132.754 73.6193 132.708 73.8493 132.708C74.0312 132.708 74.1796 132.722 74.2946 132.752C74.4096 132.781 74.4954 132.808 74.5518 132.833L74.3386 133.473C74.3009 133.46 74.2486 133.445 74.1817 133.426C74.1169 133.407 74.0312 133.398 73.9246 133.398C73.6799 133.398 73.5032 133.459 73.3945 133.583C73.2879 133.706 73.2346 133.887 73.2346 134.125V139.432H72.4944ZM76.9956 139.532C76.5314 139.532 76.131 139.43 75.7944 139.225C75.4598 139.018 75.2016 138.73 75.0197 138.359C74.8399 137.987 74.75 137.554 74.75 137.061C74.75 136.568 74.8399 136.133 75.0197 135.756C75.2016 135.378 75.4546 135.083 75.7787 134.872C76.1049 134.659 76.4854 134.552 76.9203 134.552C77.1713 134.552 77.419 134.594 77.6637 134.677C77.9083 134.761 78.131 134.897 78.3317 135.085C78.5324 135.271 78.6924 135.518 78.8116 135.825C78.9308 136.133 78.9903 136.511 78.9903 136.961V137.274H75.2769V136.634H78.2376C78.2376 136.363 78.1833 136.12 78.0745 135.907C77.9679 135.694 77.8153 135.525 77.6166 135.402C77.4201 135.278 77.188 135.217 76.9203 135.217C76.6255 135.217 76.3704 135.29 76.1551 135.436C75.9418 135.581 75.7777 135.769 75.6627 136.001C75.5477 136.233 75.4902 136.482 75.4902 136.747V137.174C75.4902 137.538 75.5529 137.846 75.6783 138.099C75.8059 138.35 75.9826 138.541 76.2084 138.673C76.4342 138.803 76.6966 138.868 76.9956 138.868C77.1901 138.868 77.3657 138.84 77.5225 138.786C77.6814 138.73 77.8184 138.646 77.9334 138.535C78.0484 138.422 78.1373 138.282 78.2 138.115L78.9151 138.316C78.8398 138.558 78.7133 138.771 78.5356 138.955C78.3578 139.137 78.1383 139.279 77.8769 139.382C77.6156 139.482 77.3218 139.532 76.9956 139.532ZM79.9397 139.432V134.615H80.6548V135.342H80.7049C80.7928 135.104 80.9517 134.91 81.1817 134.762C81.4117 134.614 81.6709 134.539 81.9595 134.539C82.0138 134.539 82.0818 134.54 82.1633 134.542C82.2449 134.545 82.3066 134.548 82.3484 134.552V135.305C82.3233 135.298 82.2658 135.289 82.1759 135.276C82.0881 135.262 81.995 135.254 81.8968 135.254C81.6626 135.254 81.4535 135.304 81.2695 135.402C81.0876 135.498 80.9433 135.632 80.8367 135.803C80.7321 135.973 80.6798 136.166 80.6798 136.384V139.432H79.9397Z" fill="#111827"/>
<rect x="108.668" y="95.1039" width="29.44" height="29.44" rx="14.72" fill="#9C83ED"/>
<path d="M123.388 104.672V114.976M123.388 114.976L118.236 109.824M123.388 114.976L128.54 109.824" stroke="white" stroke-width="1.472" stroke-linecap="round" stroke-linejoin="round"/>
<path d="M108.815 133.699V133.009H113.632V133.699H111.612V139.432H110.835V133.699H108.815ZM115.814 139.532C115.379 139.532 114.998 139.429 114.669 139.222C114.343 139.015 114.088 138.725 113.904 138.353C113.722 137.981 113.631 137.546 113.631 137.048C113.631 136.547 113.722 136.109 113.904 135.734C114.088 135.36 114.343 135.069 114.669 134.862C114.998 134.655 115.379 134.552 115.814 134.552C116.249 134.552 116.63 134.655 116.956 134.862C117.284 135.069 117.539 135.36 117.721 135.734C117.905 136.109 117.997 136.547 117.997 137.048C117.997 137.546 117.905 137.981 117.721 138.353C117.539 138.725 117.284 139.015 116.956 139.222C116.63 139.429 116.249 139.532 115.814 139.532ZM115.814 138.868C116.145 138.868 116.416 138.783 116.63 138.613C116.843 138.444 117.001 138.221 117.103 137.945C117.206 137.669 117.257 137.37 117.257 137.048C117.257 136.726 117.206 136.426 117.103 136.148C117.001 135.87 116.843 135.645 116.63 135.474C116.416 135.303 116.145 135.217 115.814 135.217C115.484 135.217 115.212 135.303 114.999 135.474C114.785 135.645 114.628 135.87 114.525 136.148C114.423 136.426 114.371 136.726 114.371 137.048C114.371 137.37 114.423 137.669 114.525 137.945C114.628 138.221 114.785 138.444 114.999 138.613C115.212 138.783 115.484 138.868 115.814 138.868ZM118.95 141.239V134.615H119.665V135.38H119.753C119.808 135.296 119.883 135.19 119.979 135.06C120.077 134.928 120.217 134.811 120.399 134.709C120.583 134.604 120.832 134.552 121.146 134.552C121.551 134.552 121.909 134.653 122.218 134.856C122.528 135.059 122.769 135.346 122.943 135.719C123.116 136.091 123.203 136.53 123.203 137.036C123.203 137.546 123.116 137.988 122.943 138.363C122.769 138.735 122.529 139.023 122.222 139.228C121.914 139.431 121.56 139.532 121.158 139.532C120.849 139.532 120.601 139.481 120.415 139.379C120.229 139.274 120.086 139.156 119.985 139.024C119.885 138.891 119.808 138.78 119.753 138.692H119.69V141.239H118.95ZM119.678 137.023C119.678 137.387 119.731 137.708 119.838 137.986C119.945 138.262 120.1 138.479 120.305 138.635C120.51 138.79 120.761 138.868 121.058 138.868C121.367 138.868 121.626 138.786 121.833 138.623C122.042 138.458 122.199 138.236 122.303 137.958C122.41 137.678 122.463 137.366 122.463 137.023C122.463 136.685 122.411 136.379 122.306 136.108C122.204 135.834 122.048 135.617 121.839 135.458C121.632 135.297 121.372 135.217 121.058 135.217C120.757 135.217 120.504 135.293 120.299 135.446C120.094 135.596 119.939 135.807 119.835 136.079C119.73 136.349 119.678 136.664 119.678 137.023ZM130.779 133.009H131.556V137.262C131.556 137.701 131.453 138.093 131.246 138.438C131.041 138.781 130.751 139.052 130.377 139.25C130.003 139.447 129.564 139.545 129.06 139.545C128.556 139.545 128.117 139.447 127.743 139.25C127.368 139.052 127.078 138.781 126.871 138.438C126.666 138.093 126.563 137.701 126.563 137.262V133.009H127.341V137.199C127.341 137.513 127.41 137.792 127.548 138.036C127.686 138.279 127.883 138.47 128.138 138.61C128.395 138.748 128.702 138.817 129.06 138.817C129.417 138.817 129.725 138.748 129.982 138.61C130.239 138.47 130.436 138.279 130.572 138.036C130.71 137.792 130.779 137.513 130.779 137.199V133.009ZM132.833 141.239V134.615H133.548V135.38H133.636C133.69 135.296 133.765 135.19 133.861 135.06C133.96 134.928 134.1 134.811 134.282 134.709C134.466 134.604 134.715 134.552 135.028 134.552C135.434 134.552 135.791 134.653 136.101 134.856C136.41 135.059 136.652 135.346 136.825 135.719C136.999 136.091 137.086 136.53 137.086 137.036C137.086 137.546 136.999 137.988 136.825 138.363C136.652 138.735 136.411 139.023 136.104 139.228C135.797 139.431 135.442 139.532 135.041 139.532C134.731 139.532 134.484 139.481 134.297 139.379C134.111 139.274 133.968 139.156 133.868 139.024C133.767 138.891 133.69 138.78 133.636 138.692H133.573V141.239H132.833ZM133.56 137.023C133.56 137.387 133.614 137.708 133.72 137.986C133.827 138.262 133.983 138.479 134.188 138.635C134.393 138.79 134.643 138.868 134.94 138.868C135.25 138.868 135.508 138.786 135.715 138.623C135.924 138.458 136.081 138.236 136.186 137.958C136.292 137.678 136.345 137.366 136.345 137.023C136.345 136.685 136.293 136.379 136.189 136.108C136.086 135.834 135.93 135.617 135.721 135.458C135.514 135.297 135.254 135.217 134.94 135.217C134.639 135.217 134.386 135.293 134.181 135.446C133.976 135.596 133.822 135.807 133.717 136.079C133.613 136.349 133.56 136.664 133.56 137.023Z" fill="#111827"/>
<rect x="165.892" y="95.1039" width="29.44" height="29.44" rx="14.72" fill="#9C83ED"/>
<path d="M174.724 106.144L186.5 106.144M186.5 106.144L183.556 109.088M186.5 106.144L183.556 103.2M186.5 113.504L174.724 113.504M174.724 113.504L177.668 116.448M174.724 113.504L177.668 110.56" stroke="white" stroke-width="1.472" stroke-linecap="round" stroke-linejoin="round"/>
<path d="M161.39 139.432V133.009H165.266V133.699H162.168V135.869H165.066V136.559H162.168V138.742H165.317V139.432H161.39ZM166.943 134.615L168.098 136.584L169.252 134.615H170.105L168.549 137.023L170.105 139.432H169.252L168.098 137.563L166.943 139.432H166.09L167.621 137.023L166.09 134.615H166.943ZM172.743 139.532C172.291 139.532 171.903 139.426 171.576 139.213C171.25 138.999 170.999 138.705 170.824 138.331C170.648 137.957 170.56 137.529 170.56 137.048C170.56 136.559 170.65 136.127 170.83 135.753C171.012 135.377 171.265 135.083 171.589 134.872C171.915 134.659 172.296 134.552 172.731 134.552C173.069 134.552 173.375 134.615 173.646 134.74C173.918 134.866 174.141 135.041 174.314 135.267C174.488 135.493 174.596 135.756 174.637 136.057H173.897C173.841 135.838 173.715 135.643 173.521 135.474C173.329 135.303 173.069 135.217 172.743 135.217C172.455 135.217 172.202 135.292 171.984 135.443C171.769 135.591 171.6 135.801 171.479 136.073C171.36 136.343 171.3 136.66 171.3 137.023C171.3 137.396 171.359 137.72 171.476 137.996C171.595 138.272 171.762 138.486 171.978 138.639C172.195 138.791 172.45 138.868 172.743 138.868C172.935 138.868 173.11 138.834 173.267 138.767C173.424 138.7 173.556 138.604 173.665 138.479C173.774 138.353 173.851 138.203 173.897 138.027H174.637C174.596 138.311 174.492 138.567 174.327 138.795C174.164 139.021 173.947 139.201 173.678 139.335C173.41 139.467 173.099 139.532 172.743 139.532ZM176.283 136.534V139.432H175.543V133.009H176.283V135.367H176.346C176.459 135.119 176.628 134.921 176.854 134.775C177.082 134.626 177.385 134.552 177.763 134.552C178.092 134.552 178.379 134.618 178.626 134.749C178.873 134.879 179.064 135.079 179.2 135.349C179.338 135.616 179.407 135.957 179.407 136.371V139.432H178.667V136.421C178.667 136.039 178.567 135.743 178.369 135.534C178.172 135.322 177.899 135.217 177.55 135.217C177.308 135.217 177.09 135.268 176.898 135.37C176.707 135.473 176.557 135.622 176.446 135.819C176.337 136.016 176.283 136.254 176.283 136.534ZM182.002 139.545C181.697 139.545 181.42 139.487 181.171 139.372C180.922 139.255 180.724 139.087 180.578 138.868C180.432 138.646 180.359 138.378 180.359 138.065C180.359 137.789 180.413 137.565 180.522 137.393C180.63 137.22 180.776 137.084 180.958 136.986C181.139 136.887 181.34 136.814 181.56 136.766C181.781 136.716 182.004 136.676 182.228 136.647C182.521 136.609 182.758 136.581 182.94 136.562C183.124 136.541 183.258 136.507 183.341 136.459C183.427 136.411 183.47 136.327 183.47 136.208V136.183C183.47 135.873 183.385 135.633 183.216 135.461C183.048 135.29 182.794 135.204 182.454 135.204C182.1 135.204 181.823 135.282 181.622 135.436C181.422 135.591 181.281 135.756 181.199 135.932L180.497 135.681C180.622 135.388 180.789 135.16 180.998 134.997C181.21 134.832 181.44 134.717 181.688 134.652C181.939 134.585 182.186 134.552 182.429 134.552C182.583 134.552 182.761 134.571 182.962 134.608C183.165 134.644 183.36 134.718 183.548 134.831C183.738 134.944 183.896 135.114 184.022 135.342C184.147 135.57 184.21 135.875 184.21 136.258V139.432H183.47V138.78H183.432C183.382 138.884 183.298 138.996 183.181 139.115C183.064 139.234 182.908 139.336 182.714 139.42C182.519 139.503 182.282 139.545 182.002 139.545ZM182.115 138.88C182.408 138.88 182.654 138.823 182.855 138.708C183.058 138.593 183.211 138.444 183.313 138.262C183.418 138.08 183.47 137.889 183.47 137.688V137.011C183.438 137.048 183.369 137.083 183.263 137.114C183.158 137.144 183.037 137.17 182.899 137.193C182.763 137.214 182.63 137.232 182.501 137.249C182.373 137.264 182.27 137.276 182.19 137.287C181.998 137.312 181.818 137.353 181.651 137.409C181.486 137.463 181.352 137.546 181.249 137.657C181.149 137.766 181.099 137.914 181.099 138.102C181.099 138.359 181.194 138.554 181.384 138.686C181.576 138.815 181.82 138.88 182.115 138.88ZM186.124 136.534V139.432H185.384V134.615H186.099V135.367H186.162C186.275 135.123 186.446 134.926 186.676 134.778C186.906 134.627 187.203 134.552 187.567 134.552C187.893 134.552 188.179 134.619 188.423 134.753C188.668 134.884 188.858 135.085 188.994 135.355C189.13 135.622 189.198 135.961 189.198 136.371V139.432H188.458V136.421C188.458 136.043 188.36 135.748 188.163 135.537C187.967 135.323 187.697 135.217 187.354 135.217C187.118 135.217 186.906 135.268 186.72 135.37C186.536 135.473 186.391 135.622 186.284 135.819C186.178 136.016 186.124 136.254 186.124 136.534ZM192.319 141.339C191.961 141.339 191.654 141.293 191.397 141.201C191.139 141.111 190.925 140.992 190.754 140.843C190.584 140.697 190.449 140.54 190.349 140.373L190.939 139.959C191.006 140.047 191.09 140.147 191.193 140.26C191.295 140.375 191.435 140.474 191.613 140.558C191.793 140.644 192.028 140.687 192.319 140.687C192.708 140.687 193.028 140.593 193.281 140.404C193.534 140.216 193.661 139.921 193.661 139.52V138.541H193.598C193.544 138.629 193.467 138.738 193.366 138.868C193.268 138.995 193.126 139.109 192.94 139.209C192.756 139.308 192.507 139.357 192.193 139.357C191.804 139.357 191.455 139.265 191.146 139.081C190.838 138.897 190.595 138.629 190.415 138.278C190.237 137.927 190.148 137.5 190.148 136.998C190.148 136.505 190.235 136.075 190.409 135.709C190.582 135.341 190.824 135.057 191.133 134.856C191.443 134.653 191.8 134.552 192.206 134.552C192.519 134.552 192.768 134.604 192.952 134.709C193.138 134.811 193.28 134.928 193.379 135.06C193.479 135.19 193.556 135.296 193.611 135.38H193.686V134.615H194.401V139.57C194.401 139.984 194.307 140.321 194.119 140.58C193.933 140.841 193.682 141.033 193.366 141.154C193.053 141.277 192.703 141.339 192.319 141.339ZM192.294 138.692C192.59 138.692 192.841 138.624 193.046 138.488C193.251 138.352 193.407 138.157 193.514 137.902C193.62 137.646 193.674 137.341 193.674 136.986C193.674 136.639 193.621 136.332 193.517 136.067C193.412 135.801 193.257 135.593 193.053 135.443C192.848 135.292 192.595 135.217 192.294 135.217C191.98 135.217 191.719 135.296 191.509 135.455C191.302 135.614 191.147 135.827 191.042 136.095C190.94 136.363 190.888 136.66 190.888 136.986C190.888 137.32 190.941 137.616 191.045 137.873C191.152 138.128 191.309 138.329 191.516 138.475C191.725 138.62 191.984 138.692 192.294 138.692ZM197.599 139.532C197.135 139.532 196.735 139.43 196.398 139.225C196.063 139.018 195.805 138.73 195.623 138.359C195.444 137.987 195.354 137.554 195.354 137.061C195.354 136.568 195.444 136.133 195.623 135.756C195.805 135.378 196.058 135.083 196.382 134.872C196.709 134.659 197.089 134.552 197.524 134.552C197.775 134.552 198.023 134.594 198.267 134.677C198.512 134.761 198.735 134.897 198.935 135.085C199.136 135.271 199.296 135.518 199.415 135.825C199.534 136.133 199.594 136.511 199.594 136.961V137.274H195.881V136.634H198.841C198.841 136.363 198.787 136.12 198.678 135.907C198.572 135.694 198.419 135.525 198.22 135.402C198.024 135.278 197.792 135.217 197.524 135.217C197.229 135.217 196.974 135.29 196.759 135.436C196.545 135.581 196.381 135.769 196.266 136.001C196.151 136.233 196.094 136.482 196.094 136.747V137.174C196.094 137.538 196.157 137.846 196.282 138.099C196.41 138.35 196.586 138.541 196.812 138.673C197.038 138.803 197.3 138.868 197.599 138.868C197.794 138.868 197.969 138.84 198.126 138.786C198.285 138.73 198.422 138.646 198.537 138.535C198.652 138.422 198.741 138.282 198.804 138.115L199.519 138.316C199.443 138.558 199.317 138.771 199.139 138.955C198.961 139.137 198.742 139.279 198.481 139.382C198.219 139.482 197.925 139.532 197.599 139.532Z" fill="#111827"/>
<rect x="223.116" y="95.1041" width="29.44" height="29.44" rx="14.72" fill="#9C83ED"/>
<g clip-path="url(#clip1_17_60)">
<path d="M245.197 108.352H230.477M237.101 111.296H233.421M230.477 107.027L230.477 112.62C230.477 113.445 230.477 113.857 230.637 114.172C230.778 114.449 231.003 114.674 231.28 114.815C231.595 114.976 232.007 114.976 232.832 114.976L242.841 114.976C243.666 114.976 244.078 114.976 244.393 114.815C244.67 114.674 244.895 114.449 245.036 114.172C245.197 113.857 245.197 113.445 245.197 112.62V107.027C245.197 106.202 245.197 105.79 245.036 105.475C244.895 105.198 244.67 104.973 244.393 104.832C244.078 104.672 243.666 104.672 242.841 104.672L232.832 104.672C232.007 104.672 231.595 104.672 231.28 104.832C231.003 104.973 230.778 105.198 230.637 105.475C230.477 105.79 230.477 106.202 230.477 107.027Z" stroke="white" stroke-width="1.472" stroke-linecap="round" stroke-linejoin="round"/>
</g>
<path d="M219.614 139.432V133.009H221.784C222.288 133.009 222.7 133.1 223.02 133.282C223.342 133.461 223.581 133.705 223.735 134.012C223.89 134.32 223.967 134.663 223.967 135.041C223.967 135.42 223.89 135.764 223.735 136.073C223.583 136.382 223.346 136.629 223.026 136.813C222.707 136.995 222.297 137.086 221.797 137.086H220.241V136.396H221.772C222.117 136.396 222.394 136.336 222.603 136.217C222.812 136.098 222.964 135.937 223.058 135.734C223.154 135.529 223.202 135.298 223.202 135.041C223.202 134.784 223.154 134.554 223.058 134.351C222.964 134.148 222.811 133.989 222.6 133.874C222.389 133.757 222.109 133.699 221.759 133.699H220.392V139.432H219.614ZM226.361 139.545C226.056 139.545 225.779 139.487 225.53 139.372C225.281 139.255 225.083 139.087 224.937 138.868C224.791 138.646 224.717 138.378 224.717 138.065C224.717 137.789 224.772 137.565 224.881 137.393C224.989 137.22 225.135 137.084 225.317 136.986C225.498 136.887 225.699 136.814 225.919 136.766C226.14 136.716 226.363 136.676 226.587 136.647C226.879 136.609 227.117 136.581 227.299 136.562C227.483 136.541 227.617 136.507 227.7 136.459C227.786 136.411 227.829 136.327 227.829 136.208V136.183C227.829 135.873 227.744 135.633 227.575 135.461C227.407 135.29 227.153 135.204 226.813 135.204C226.459 135.204 226.182 135.282 225.981 135.436C225.781 135.591 225.64 135.756 225.558 135.932L224.855 135.681C224.981 135.388 225.148 135.16 225.357 134.997C225.568 134.832 225.798 134.717 226.047 134.652C226.298 134.585 226.545 134.552 226.787 134.552C226.942 134.552 227.12 134.571 227.321 134.608C227.523 134.644 227.719 134.718 227.907 134.831C228.097 134.944 228.255 135.114 228.381 135.342C228.506 135.57 228.569 135.875 228.569 136.258V139.432H227.829V138.78H227.791C227.741 138.884 227.657 138.996 227.54 139.115C227.423 139.234 227.267 139.336 227.073 139.42C226.878 139.503 226.641 139.545 226.361 139.545ZM226.474 138.88C226.767 138.88 227.013 138.823 227.214 138.708C227.417 138.593 227.569 138.444 227.672 138.262C227.776 138.08 227.829 137.889 227.829 137.688V137.011C227.797 137.048 227.728 137.083 227.622 137.114C227.517 137.144 227.396 137.17 227.258 137.193C227.122 137.214 226.989 137.232 226.86 137.249C226.732 137.264 226.629 137.276 226.549 137.287C226.357 137.312 226.177 137.353 226.01 137.409C225.844 137.463 225.711 137.546 225.608 137.657C225.508 137.766 225.458 137.914 225.458 138.102C225.458 138.359 225.553 138.554 225.743 138.686C225.935 138.815 226.179 138.88 226.474 138.88ZM230.048 141.239C229.922 141.239 229.81 141.228 229.712 141.207C229.614 141.188 229.546 141.17 229.508 141.151L229.696 140.498C229.876 140.544 230.035 140.561 230.173 140.549C230.311 140.536 230.433 140.474 230.54 140.364C230.649 140.255 230.748 140.078 230.838 139.834L230.976 139.457L229.194 134.615H229.997L231.327 138.454H231.377L232.707 134.615H233.51L231.465 140.135C231.373 140.383 231.259 140.589 231.123 140.752C230.987 140.918 230.83 141.04 230.65 141.119C230.472 141.199 230.271 141.239 230.048 141.239ZM236.718 139.432V133.009H237.496V138.742H240.482V139.432H236.718ZM242.827 139.545C242.521 139.545 242.244 139.487 241.996 139.372C241.747 139.255 241.549 139.087 241.403 138.868C241.256 138.646 241.183 138.378 241.183 138.065C241.183 137.789 241.238 137.565 241.346 137.393C241.455 137.22 241.6 137.084 241.782 136.986C241.964 136.887 242.165 136.814 242.385 136.766C242.606 136.716 242.829 136.676 243.053 136.647C243.345 136.609 243.583 136.581 243.765 136.562C243.949 136.541 244.082 136.507 244.166 136.459C244.252 136.411 244.295 136.327 244.295 136.208V136.183C244.295 135.873 244.21 135.633 244.041 135.461C243.873 135.29 243.619 135.204 243.278 135.204C242.925 135.204 242.648 135.282 242.447 135.436C242.247 135.591 242.105 135.756 242.024 135.932L241.321 135.681C241.447 135.388 241.614 135.16 241.823 134.997C242.034 134.832 242.264 134.717 242.513 134.652C242.764 134.585 243.011 134.552 243.253 134.552C243.408 134.552 243.586 134.571 243.786 134.608C243.989 134.644 244.185 134.718 244.373 134.831C244.563 134.944 244.721 135.114 244.847 135.342C244.972 135.57 245.035 135.875 245.035 136.258V139.432H244.295V138.78H244.257C244.207 138.884 244.123 138.996 244.006 139.115C243.889 139.234 243.733 139.336 243.539 139.42C243.344 139.503 243.107 139.545 242.827 139.545ZM242.94 138.88C243.232 138.88 243.479 138.823 243.68 138.708C243.883 138.593 244.035 138.444 244.138 138.262C244.242 138.08 244.295 137.889 244.295 137.688V137.011C244.263 137.048 244.194 137.083 244.088 137.114C243.983 137.144 243.862 137.17 243.724 137.193C243.588 137.214 243.455 137.232 243.325 137.249C243.198 137.264 243.094 137.276 243.015 137.287C242.823 137.312 242.643 137.353 242.475 137.409C242.31 137.463 242.176 137.546 242.074 137.657C241.974 137.766 241.923 137.914 241.923 138.102C241.923 138.359 242.019 138.554 242.209 138.686C242.401 138.815 242.645 138.88 242.94 138.88ZM248.304 134.615V135.242H245.808V134.615H248.304ZM246.535 133.46H247.275V138.052C247.275 138.261 247.306 138.418 247.366 138.523C247.429 138.625 247.509 138.694 247.605 138.73C247.703 138.763 247.807 138.78 247.915 138.78C247.997 138.78 248.064 138.776 248.116 138.767C248.168 138.757 248.21 138.748 248.241 138.742L248.392 139.407C248.342 139.426 248.272 139.445 248.182 139.463C248.092 139.484 247.978 139.495 247.84 139.495C247.631 139.495 247.426 139.45 247.225 139.36C247.027 139.27 246.861 139.133 246.73 138.949C246.6 138.765 246.535 138.533 246.535 138.253V133.46ZM251.209 139.532C250.745 139.532 250.344 139.43 250.008 139.225C249.673 139.018 249.415 138.73 249.233 138.359C249.053 137.987 248.963 137.554 248.963 137.061C248.963 136.568 249.053 136.133 249.233 135.756C249.415 135.378 249.668 135.083 249.992 134.872C250.318 134.659 250.699 134.552 251.134 134.552C251.385 134.552 251.632 134.594 251.877 134.677C252.122 134.761 252.344 134.897 252.545 135.085C252.746 135.271 252.906 135.518 253.025 135.825C253.144 136.133 253.204 136.511 253.204 136.961V137.274H249.49V136.634H252.451C252.451 136.363 252.397 136.12 252.288 135.907C252.181 135.694 252.029 135.525 251.83 135.402C251.633 135.278 251.401 135.217 251.134 135.217C250.839 135.217 250.584 135.29 250.368 135.436C250.155 135.581 249.991 135.769 249.876 136.001C249.761 136.233 249.704 136.482 249.704 136.747V137.174C249.704 137.538 249.766 137.846 249.892 138.099C250.019 138.35 250.196 138.541 250.422 138.673C250.648 138.803 250.91 138.868 251.209 138.868C251.403 138.868 251.579 138.84 251.736 138.786C251.895 138.73 252.032 138.646 252.147 138.535C252.262 138.422 252.351 138.282 252.413 138.115L253.128 138.316C253.053 138.558 252.927 138.771 252.749 138.955C252.571 139.137 252.352 139.279 252.09 139.382C251.829 139.482 251.535 139.532 251.209 139.532ZM254.153 139.432V134.615H254.868V135.342H254.918C255.006 135.104 255.165 134.91 255.395 134.762C255.625 134.614 255.884 134.539 256.173 134.539C256.227 134.539 256.295 134.54 256.377 134.542C256.458 134.545 256.52 134.548 256.562 134.552V135.305C256.537 135.298 256.479 135.289 256.389 135.276C256.301 135.262 256.208 135.254 256.11 135.254C255.876 135.254 255.667 135.304 255.483 135.402C255.301 135.498 255.157 135.632 255.05 135.803C254.946 135.973 254.893 136.166 254.893 136.384V139.432H254.153Z" fill="#111827"/>
<path d="M117.582 168.561H118.758L120.803 173.554H120.878L122.923 168.561H124.099V174.984H123.177V170.336H123.117L121.223 174.975H120.458L118.563 170.333H118.504V174.984H117.582V168.561ZM127.285 175.081C126.834 175.081 126.44 174.978 126.103 174.771C125.766 174.564 125.505 174.274 125.319 173.902C125.133 173.53 125.04 173.095 125.04 172.597C125.04 172.098 125.133 171.661 125.319 171.286C125.505 170.912 125.766 170.621 126.103 170.414C126.44 170.207 126.834 170.104 127.285 170.104C127.737 170.104 128.131 170.207 128.468 170.414C128.804 170.621 129.066 170.912 129.252 171.286C129.438 171.661 129.531 172.098 129.531 172.597C129.531 173.095 129.438 173.53 129.252 173.902C129.066 174.274 128.804 174.564 128.468 174.771C128.131 174.978 127.737 175.081 127.285 175.081ZM127.289 174.294C127.581 174.294 127.824 174.217 128.016 174.062C128.209 173.907 128.351 173.701 128.443 173.444C128.537 173.187 128.584 172.904 128.584 172.594C128.584 172.287 128.537 172.004 128.443 171.747C128.351 171.488 128.209 171.28 128.016 171.123C127.824 170.966 127.581 170.888 127.289 170.888C126.994 170.888 126.749 170.966 126.555 171.123C126.362 171.28 126.219 171.488 126.125 171.747C126.033 172.004 125.987 172.287 125.987 172.594C125.987 172.904 126.033 173.187 126.125 173.444C126.219 173.701 126.362 173.907 126.555 174.062C126.749 174.217 126.994 174.294 127.289 174.294ZM130.401 174.984V170.167H131.308V170.932H131.358C131.446 170.673 131.6 170.469 131.822 170.32C132.046 170.17 132.299 170.094 132.581 170.094C132.639 170.094 132.708 170.097 132.788 170.101C132.869 170.105 132.933 170.11 132.979 170.116V171.013C132.942 171.003 132.875 170.991 132.779 170.979C132.682 170.964 132.586 170.957 132.49 170.957C132.268 170.957 132.071 171.004 131.897 171.098C131.726 171.19 131.59 171.319 131.489 171.484C131.389 171.647 131.339 171.833 131.339 172.042V174.984H130.401ZM135.518 175.081C135.043 175.081 134.635 174.98 134.292 174.777C133.951 174.572 133.687 174.285 133.501 173.915C133.317 173.542 133.225 173.106 133.225 172.607C133.225 172.113 133.317 171.678 133.501 171.302C133.687 170.926 133.947 170.632 134.279 170.421C134.614 170.209 135.005 170.104 135.452 170.104C135.724 170.104 135.987 170.149 136.242 170.239C136.498 170.329 136.726 170.47 136.929 170.662C137.132 170.854 137.292 171.104 137.409 171.412C137.526 171.717 137.585 172.088 137.585 172.525V172.858H133.755V172.155H136.666C136.666 171.908 136.616 171.69 136.515 171.5C136.415 171.307 136.274 171.156 136.092 171.045C135.912 170.934 135.701 170.879 135.458 170.879C135.195 170.879 134.965 170.943 134.768 171.073C134.574 171.201 134.423 171.368 134.317 171.575C134.212 171.78 134.16 172.002 134.16 172.243V172.792C134.16 173.114 134.216 173.388 134.329 173.613C134.444 173.839 134.604 174.012 134.809 174.131C135.014 174.248 135.253 174.307 135.527 174.307C135.705 174.307 135.867 174.281 136.013 174.231C136.16 174.179 136.286 174.102 136.393 173.999C136.5 173.897 136.581 173.77 136.638 173.62L137.525 173.78C137.454 174.041 137.327 174.27 137.143 174.467C136.961 174.661 136.732 174.813 136.456 174.921C136.182 175.028 135.869 175.081 135.518 175.081ZM142.902 170.167V170.919H140.18V170.167H142.902ZM140.926 174.984V169.608C140.926 169.307 140.992 169.057 141.124 168.859C141.255 168.658 141.43 168.508 141.648 168.41C141.865 168.31 142.101 168.26 142.356 168.26C142.545 168.26 142.706 168.275 142.839 168.307C142.973 168.336 143.072 168.363 143.137 168.388L142.918 169.147C142.874 169.135 142.817 169.12 142.748 169.103C142.679 169.085 142.596 169.075 142.497 169.075C142.27 169.075 142.106 169.132 142.008 169.244C141.912 169.357 141.864 169.52 141.864 169.734V174.984H140.926ZM145.58 175.081C145.105 175.081 144.696 174.98 144.353 174.777C144.012 174.572 143.749 174.285 143.563 173.915C143.379 173.542 143.287 173.106 143.287 172.607C143.287 172.113 143.379 171.678 143.563 171.302C143.749 170.926 144.008 170.632 144.341 170.421C144.675 170.209 145.066 170.104 145.514 170.104C145.785 170.104 146.049 170.149 146.304 170.239C146.559 170.329 146.788 170.47 146.991 170.662C147.194 170.854 147.354 171.104 147.471 171.412C147.588 171.717 147.646 172.088 147.646 172.525V172.858H143.817V172.155H146.727C146.727 171.908 146.677 171.69 146.577 171.5C146.477 171.307 146.335 171.156 146.153 171.045C145.974 170.934 145.762 170.879 145.52 170.879C145.256 170.879 145.026 170.943 144.83 171.073C144.635 171.201 144.485 171.368 144.378 171.575C144.274 171.78 144.221 172.002 144.221 172.243V172.792C144.221 173.114 144.278 173.388 144.391 173.613C144.506 173.839 144.666 174.012 144.871 174.131C145.076 174.248 145.315 174.307 145.589 174.307C145.767 174.307 145.929 174.281 146.075 174.231C146.221 174.179 146.348 174.102 146.455 173.999C146.561 173.897 146.643 173.77 146.699 173.62L147.587 173.78C147.516 174.041 147.388 174.27 147.204 174.467C147.022 174.661 146.793 174.813 146.517 174.921C146.243 175.028 145.931 175.081 145.58 175.081ZM149.912 175.091C149.607 175.091 149.331 175.034 149.084 174.921C148.837 174.806 148.642 174.64 148.498 174.423C148.355 174.205 148.284 173.939 148.284 173.623C148.284 173.351 148.337 173.127 148.441 172.952C148.546 172.776 148.687 172.637 148.865 172.535C149.042 172.432 149.241 172.355 149.461 172.302C149.68 172.25 149.904 172.21 150.132 172.183C150.42 172.15 150.654 172.123 150.834 172.102C151.014 172.079 151.145 172.042 151.226 171.992C151.308 171.942 151.349 171.86 151.349 171.747V171.725C151.349 171.451 151.271 171.239 151.117 171.089C150.964 170.938 150.736 170.863 150.433 170.863C150.117 170.863 149.868 170.933 149.686 171.073C149.507 171.211 149.382 171.365 149.313 171.534L148.432 171.333C148.536 171.041 148.689 170.804 148.89 170.624C149.093 170.443 149.326 170.311 149.589 170.229C149.853 170.146 150.13 170.104 150.42 170.104C150.613 170.104 150.816 170.127 151.032 170.173C151.249 170.217 151.452 170.298 151.64 170.417C151.831 170.537 151.986 170.707 152.108 170.929C152.229 171.148 152.29 171.434 152.29 171.785V174.984H151.374V174.325H151.336C151.275 174.447 151.184 174.566 151.063 174.683C150.942 174.8 150.786 174.897 150.596 174.975C150.406 175.052 150.178 175.091 149.912 175.091ZM150.116 174.338C150.375 174.338 150.597 174.287 150.781 174.184C150.967 174.082 151.108 173.948 151.204 173.783C151.303 173.616 151.352 173.437 151.352 173.246V172.625C151.318 172.659 151.253 172.69 151.157 172.72C151.063 172.747 150.956 172.771 150.834 172.792C150.713 172.811 150.595 172.828 150.48 172.845C150.365 172.86 150.269 172.872 150.191 172.883C150.009 172.906 149.843 172.944 149.693 172.999C149.544 173.053 149.425 173.131 149.335 173.234C149.247 173.334 149.203 173.468 149.203 173.635C149.203 173.867 149.289 174.043 149.461 174.162C149.632 174.279 149.85 174.338 150.116 174.338ZM155.611 170.167V170.919H152.979V170.167H155.611ZM153.685 169.012H154.623V173.57C154.623 173.751 154.65 173.888 154.704 173.98C154.759 174.07 154.829 174.132 154.914 174.165C155.002 174.197 155.097 174.212 155.2 174.212C155.275 174.212 155.341 174.207 155.397 174.197C155.454 174.186 155.498 174.178 155.529 174.172L155.699 174.946C155.644 174.967 155.567 174.988 155.466 175.009C155.366 175.032 155.241 175.045 155.09 175.047C154.843 175.051 154.613 175.007 154.4 174.915C154.187 174.823 154.014 174.681 153.883 174.488C153.751 174.296 153.685 174.055 153.685 173.764V169.012ZM159.523 172.986V170.167H160.464V174.984H159.542V174.15H159.492C159.381 174.407 159.203 174.621 158.959 174.793C158.716 174.962 158.414 175.047 158.052 175.047C157.743 175.047 157.469 174.979 157.23 174.843C156.994 174.705 156.808 174.501 156.672 174.231C156.538 173.962 156.471 173.628 156.471 173.231V170.167H157.409V173.118C157.409 173.446 157.5 173.708 157.682 173.902C157.864 174.096 158.1 174.194 158.391 174.194C158.567 174.194 158.741 174.15 158.915 174.062C159.09 173.974 159.236 173.841 159.351 173.664C159.468 173.486 159.525 173.26 159.523 172.986ZM161.547 174.984V170.167H162.454V170.932H162.504C162.592 170.673 162.747 170.469 162.968 170.32C163.192 170.17 163.445 170.094 163.727 170.094C163.786 170.094 163.855 170.097 163.934 170.101C164.016 170.105 164.08 170.11 164.126 170.116V171.013C164.088 171.003 164.021 170.991 163.925 170.979C163.829 170.964 163.732 170.957 163.636 170.957C163.415 170.957 163.217 171.004 163.043 171.098C162.872 171.19 162.736 171.319 162.636 171.484C162.535 171.647 162.485 171.833 162.485 172.042V174.984H161.547ZM166.664 175.081C166.19 175.081 165.781 174.98 165.438 174.777C165.097 174.572 164.834 174.285 164.647 173.915C164.463 173.542 164.371 173.106 164.371 172.607C164.371 172.113 164.463 171.678 164.647 171.302C164.834 170.926 165.093 170.632 165.425 170.421C165.76 170.209 166.151 170.104 166.598 170.104C166.87 170.104 167.134 170.149 167.389 170.239C167.644 170.329 167.873 170.47 168.076 170.662C168.278 170.854 168.438 171.104 168.555 171.412C168.672 171.717 168.731 172.088 168.731 172.525V172.858H164.902V172.155H167.812C167.812 171.908 167.762 171.69 167.662 171.5C167.561 171.307 167.42 171.156 167.238 171.045C167.058 170.934 166.847 170.879 166.605 170.879C166.341 170.879 166.111 170.943 165.915 171.073C165.72 171.201 165.57 171.368 165.463 171.575C165.358 171.78 165.306 172.002 165.306 172.243V172.792C165.306 173.114 165.363 173.388 165.475 173.613C165.59 173.839 165.75 174.012 165.955 174.131C166.16 174.248 166.4 174.307 166.674 174.307C166.851 174.307 167.013 174.281 167.16 174.231C167.306 174.179 167.433 174.102 167.539 173.999C167.646 173.897 167.727 173.77 167.784 173.62L168.671 173.78C168.6 174.041 168.473 174.27 168.289 174.467C168.107 174.661 167.878 174.813 167.602 174.921C167.328 175.028 167.015 175.081 166.664 175.081ZM173.205 171.343L172.355 171.493C172.319 171.385 172.263 171.281 172.186 171.183C172.11 171.084 172.008 171.004 171.878 170.941C171.749 170.879 171.586 170.847 171.392 170.847C171.126 170.847 170.905 170.907 170.727 171.026C170.549 171.143 170.461 171.295 170.461 171.481C170.461 171.642 170.52 171.771 170.639 171.87C170.758 171.968 170.951 172.048 171.216 172.111L171.982 172.287C172.425 172.389 172.755 172.547 172.973 172.76C173.19 172.974 173.299 173.251 173.299 173.591C173.299 173.88 173.215 174.137 173.048 174.363C172.883 174.587 172.652 174.762 172.355 174.89C172.06 175.017 171.718 175.081 171.329 175.081C170.79 175.081 170.35 174.966 170.009 174.736C169.668 174.504 169.459 174.175 169.382 173.748L170.288 173.61C170.344 173.847 170.461 174.025 170.636 174.147C170.812 174.266 171.041 174.325 171.323 174.325C171.63 174.325 171.876 174.262 172.06 174.134C172.244 174.004 172.336 173.847 172.336 173.66C172.336 173.51 172.28 173.383 172.167 173.281C172.056 173.179 171.885 173.101 171.655 173.049L170.84 172.87C170.39 172.768 170.058 172.605 169.843 172.381C169.629 172.157 169.523 171.874 169.523 171.531C169.523 171.247 169.602 170.998 169.761 170.784C169.92 170.571 170.14 170.405 170.42 170.286C170.7 170.164 171.021 170.104 171.383 170.104C171.903 170.104 172.313 170.217 172.612 170.443C172.911 170.666 173.109 170.966 173.205 171.343Z" fill="#111827"/>
<path d="M180.5 170.88L182.708 173.088L184.916 170.88" stroke="#6B7280" stroke-width="0.92" stroke-linecap="round" stroke-linejoin="round"/>
</g>
<rect x="29.088" y="80.752" width="245.824" height="105.696" rx="11.408" stroke="#E5E7EB" stroke-width="0.736"/>
</g>
<defs>
<filter id="filter0_d_17_60" x="0.00599575" y="0.874219" width="303.988" height="221.524" filterUnits="userSpaceOnUse" color-interpolation-filters="sRGB">
<feFlood flood-opacity="0" result="BackgroundImageFix"/>
<feColorMatrix in="SourceAlpha" type="matrix" values="0 0 0 0 0 0 0 0 0 0 0 0 0 0 0 0 0 0 127 0" result="hardAlpha"/>
<feOffset dy="6.86822"/>
<feGaussianBlur stdDeviation="6.997"/>
<feComposite in2="hardAlpha" operator="out"/>
<feColorMatrix type="matrix" values="0 0 0 0 0 0 0 0 0 0 0 0 0 0 0 0 0 0 0.06 0"/>
<feBlend mode="normal" in2="BackgroundImageFix" result="effect1_dropShadow_17_60"/>
<feBlend mode="normal" in="SourceGraphic" in2="effect1_dropShadow_17_60" result="shape"/>
</filter>
<clipPath id="clip0_17_60">
<rect x="28.72" y="80.384" width="246.56" height="106.432" rx="11.776" fill="white"/>
</clipPath>
<clipPath id="clip1_17_60">
<rect width="17.664" height="17.664" fill="white" transform="translate(229.005 100.992)"/>
</clipPath>
</defs>
</svg>
